<mxfile host="app.diagrams.net" modified="2024-01-03T06:36:42.415Z" agent="Mozilla/5.0 (Windows NT 10.0; Win64; x64) AppleWebKit/537.36 (KHTML, like Gecko) Chrome/120.0.0.0 Safari/537.36" etag="YiYtXRTf3QMfzZ9sKlIc" version="22.1.16" type="github">
  <diagram name="第 1 页" id="1ho18m5YslocJyV8p1p3">
    <mxGraphModel dx="1050" dy="565" grid="0" gridSize="10" guides="1" tooltips="1" connect="1" arrows="1" fold="1" page="1" pageScale="1" pageWidth="827" pageHeight="1169" math="0" shadow="0">
      <root>
        <mxCell id="0" />
        <mxCell id="1" parent="0" />
        <mxCell id="aEtwDK3V9bjBAhXqwe3G-5" value="" style="edgeStyle=orthogonalEdgeStyle;rounded=0;orthogonalLoop=1;jettySize=auto;html=1;labelBackgroundColor=none;fillColor=#ffe6cc;strokeColor=#d79b00;fontColor=#f09729;labelBorderColor=none;" edge="1" parent="1" source="aEtwDK3V9bjBAhXqwe3G-1" target="aEtwDK3V9bjBAhXqwe3G-4">
          <mxGeometry relative="1" as="geometry" />
        </mxCell>
        <mxCell id="aEtwDK3V9bjBAhXqwe3G-1" value="进程切换" style="rounded=1;whiteSpace=wrap;html=1;labelBackgroundColor=none;fillColor=#ffe6cc;strokeColor=#d79b00;fontColor=#f09729;labelBorderColor=none;" vertex="1" parent="1">
          <mxGeometry x="100" y="70" width="120" height="30" as="geometry" />
        </mxCell>
        <mxCell id="aEtwDK3V9bjBAhXqwe3G-7" value="" style="edgeStyle=orthogonalEdgeStyle;rounded=0;orthogonalLoop=1;jettySize=auto;html=1;labelBackgroundColor=none;fillColor=#ffe6cc;strokeColor=#d79b00;fontColor=#f09729;labelBorderColor=none;" edge="1" parent="1" source="aEtwDK3V9bjBAhXqwe3G-4" target="aEtwDK3V9bjBAhXqwe3G-6">
          <mxGeometry relative="1" as="geometry" />
        </mxCell>
        <mxCell id="aEtwDK3V9bjBAhXqwe3G-4" value="&lt;div style=&quot;font-family: Consolas, &amp;quot;Courier New&amp;quot;, monospace; line-height: 16px;&quot;&gt;usertrap&lt;/div&gt;CPU时间片到，产生中断" style="rounded=1;whiteSpace=wrap;html=1;labelBackgroundColor=none;fillColor=#ffe6cc;strokeColor=#d79b00;fontColor=#f09729;labelBorderColor=none;" vertex="1" parent="1">
          <mxGeometry x="75" y="130" width="170" height="40" as="geometry" />
        </mxCell>
        <mxCell id="aEtwDK3V9bjBAhXqwe3G-9" value="" style="edgeStyle=orthogonalEdgeStyle;rounded=0;orthogonalLoop=1;jettySize=auto;html=1;fillColor=#ffe6cc;strokeColor=#d79b00;fontColor=#f09729;labelBorderColor=none;" edge="1" parent="1" source="aEtwDK3V9bjBAhXqwe3G-6" target="aEtwDK3V9bjBAhXqwe3G-8">
          <mxGeometry relative="1" as="geometry" />
        </mxCell>
        <mxCell id="aEtwDK3V9bjBAhXqwe3G-6" value="&lt;div style=&quot;font-family: Consolas, &amp;quot;Courier New&amp;quot;, monospace; line-height: 16px;&quot;&gt;&lt;div style=&quot;line-height: 16px;&quot;&gt;yield&lt;/div&gt;&lt;div style=&quot;line-height: 16px;&quot;&gt;1.获得lock&lt;/div&gt;&lt;div style=&quot;line-height: 16px;&quot;&gt;2.改进程状态为RUNNABLE&lt;/div&gt;&lt;/div&gt;" style="rounded=1;whiteSpace=wrap;html=1;labelBackgroundColor=none;fillColor=#ffe6cc;strokeColor=#d79b00;fontColor=#f09729;labelBorderColor=none;" vertex="1" parent="1">
          <mxGeometry x="75" y="200" width="170" height="50" as="geometry" />
        </mxCell>
        <mxCell id="aEtwDK3V9bjBAhXqwe3G-13" value="" style="edgeStyle=orthogonalEdgeStyle;rounded=0;orthogonalLoop=1;jettySize=auto;html=1;fillColor=#ffe6cc;strokeColor=#d79b00;fontColor=#f09729;labelBorderColor=none;" edge="1" parent="1" source="aEtwDK3V9bjBAhXqwe3G-8" target="aEtwDK3V9bjBAhXqwe3G-12">
          <mxGeometry relative="1" as="geometry" />
        </mxCell>
        <mxCell id="aEtwDK3V9bjBAhXqwe3G-8" value="&lt;div style=&quot;font-family: Consolas, &amp;quot;Courier New&amp;quot;, monospace; line-height: 16px;&quot;&gt;&lt;div style=&quot;line-height: 16px;&quot;&gt;shed&lt;/div&gt;&lt;div style=&quot;line-height: 16px;&quot;&gt;1.检查条件:获得lock?无其他锁?&lt;/div&gt;&lt;/div&gt;" style="rounded=1;whiteSpace=wrap;html=1;labelBackgroundColor=none;fillColor=#ffe6cc;strokeColor=#d79b00;fontColor=#f09729;labelBorderColor=none;" vertex="1" parent="1">
          <mxGeometry x="62.5" y="280" width="195" height="50" as="geometry" />
        </mxCell>
        <mxCell id="aEtwDK3V9bjBAhXqwe3G-15" value="" style="edgeStyle=orthogonalEdgeStyle;rounded=0;orthogonalLoop=1;jettySize=auto;html=1;fillColor=#ffe6cc;strokeColor=#d79b00;fontColor=#f09729;labelBorderColor=none;" edge="1" parent="1" source="aEtwDK3V9bjBAhXqwe3G-12" target="aEtwDK3V9bjBAhXqwe3G-14">
          <mxGeometry relative="1" as="geometry" />
        </mxCell>
        <mxCell id="aEtwDK3V9bjBAhXqwe3G-12" value="swtch&lt;br&gt;1.保存此进程context&lt;br&gt;2.切换到scheduler的context" style="whiteSpace=wrap;html=1;fillColor=#ffe6cc;strokeColor=#d79b00;rounded=1;labelBackgroundColor=none;fontColor=#f09729;labelBorderColor=none;" vertex="1" parent="1">
          <mxGeometry x="70" y="370" width="180" height="60" as="geometry" />
        </mxCell>
        <mxCell id="aEtwDK3V9bjBAhXqwe3G-14" value="scheduler&lt;br&gt;循环检测到RUNNABLE的进程，则调用swtch，运行该进程" style="whiteSpace=wrap;html=1;fillColor=#ffe6cc;strokeColor=#d79b00;rounded=1;labelBackgroundColor=none;fontColor=#f09729;labelBorderColor=none;" vertex="1" parent="1">
          <mxGeometry x="70" y="480" width="180" height="60" as="geometry" />
        </mxCell>
      </root>
    </mxGraphModel>
  </diagram>
</mxfile>
